<svg width="400" height="400" viewBox="0 0 400 400" xmlns="http://www.w3.org/2000/svg">
  <!-- Background -->
  <rect width="400" height="400" fill="transparent"/>

  <!-- Letter R -->
  <g transform="translate(40, 80)">
    <!-- R Shadow/Outline -->
    <path d="M8 8 L8 248 L48 248 L48 160 L96 160 L144 248 L192 248 L136 150 Q164 140 164 100 Q164 50 124 30 Q96 8 64 8 Z M48 48 L64 48 Q96 48 104 60 Q112 70 112 100 Q112 130 104 140 Q96 150 64 150 L48 150 Z" fill="#1a1a1a" stroke="#1a1a1a" stroke-width="2"/>

    <!-- R Main -->
    <path d="M0 0 L0 240 L40 240 L40 150 L86 150 L132 240 L180 240 L124 142 Q152 132 152 92 Q152 42 112 22 Q84 0 52 0 Z M40 40 L52 40 Q84 40 92 52 Q100 62 100 92 Q100 122 92 132 Q84 142 52 142 L40 142 Z" fill="#2E86AB"/>
  </g>

  <!-- Letter S -->
  <g transform="translate(200, 80)">
    <!-- S Shadow/Outline -->
    <path d="M88 8 Q38 8 18 38 Q8 58 8 78 L48 78 Q48 58 58 48 Q68 38 88 38 L108 38 Q128 38 138 48 Q148 58 148 78 Q148 98 138 108 Q128 118 108 118 L68 118 Q28 118 8 148 Q-2 168 -2 198 Q-2 228 18 248 Q38 258 88 258 L108 258 Q158 258 178 228 Q188 208 188 188 L148 188 Q148 208 138 218 Q128 228 108 228 L88 228 Q68 228 58 218 Q48 208 48 188 Q48 168 58 158 Q68 148 88 148 L128 148 Q168 148 188 118 Q198 98 198 68 Q198 38 178 18 Q158 8 108 8 Z" fill="#1a1a1a" stroke="#1a1a1a" stroke-width="2"/>

    <!-- S Main -->
    <path d="M80 0 Q30 0 10 30 Q0 50 0 70 L40 70 Q40 50 50 40 Q60 30 80 30 L100 30 Q120 30 130 40 Q140 50 140 70 Q140 90 130 100 Q120 110 100 110 L60 110 Q20 110 0 140 Q-10 160 -10 190 Q-10 220 10 240 Q30 250 80 250 L100 250 Q150 250 170 220 Q180 200 180 180 L140 180 Q140 200 130 210 Q120 220 100 220 L80 220 Q60 220 50 210 Q40 200 40 180 Q40 160 50 150 Q60 140 80 140 L120 140 Q160 140 180 110 Q190 90 190 60 Q190 30 170 10 Q150 0 100 0 Z" fill="#F4A261"/>
  </g>
</svg>
